<?xml version="1.0" encoding="UTF-8" standalone="no"?>

<svg
   version="1.1"
   id="svg1"
   width="240"
   viewBox="0 0 1051.6906 155.30641"
   sodipodi:docname="logo.svg"
   xml:space="preserve"
   inkscape:version="1.3.2 (091e20e, 2023-11-25)"
   xmlns:inkscape="http://www.inkscape.org/namespaces/inkscape"
   xmlns:sodipodi="http://sodipodi.sourceforge.net/DTD/sodipodi-0.dtd"
   xmlns="http://www.w3.org/2000/svg"
   xmlns:svg="http://www.w3.org/2000/svg"><defs
     id="defs1" /><sodipodi:namedview
     id="namedview1"
     pagecolor="#ffffff"
     bordercolor="#000000"
     borderopacity="0.25"
     inkscape:showpageshadow="2"
     inkscape:pageopacity="0.0"
     inkscape:pagecheckerboard="0"
     inkscape:deskcolor="#d1d1d1"
     inkscape:zoom="0.95325458"
     inkscape:cx="220.82244"
     inkscape:cy="206.13591"
     inkscape:window-width="1728"
     inkscape:window-height="1080"
     inkscape:window-x="2450"
     inkscape:window-y="1477"
     inkscape:window-maximized="0"
     inkscape:current-layer="svg1"
     showgrid="false"
     showguides="false"><inkscape:grid
       id="grid1"
       units="px"
       originx="-249.94553"
       originy="-180.34579"
       spacingx="0.99999999"
       spacingy="1"
       empcolor="#0099e5"
       empopacity="0.30196078"
       color="#0099e5"
       opacity="0.14901961"
       empspacing="5"
       dotted="false"
       gridanglex="30"
       gridanglez="30"
       visible="false" /></sodipodi:namedview><rect
     style="display:none;opacity:1;fill:#070945;fill-opacity:1"
     id="rect1"
     width="1550.4413"
     height="710.50885"
     x="-237.71672"
     y="-272.05359"
     ry="1.6189818" /><g
     id="g9"
     transform="matrix(0.88734771,0,0,0.89118682,-42.71663,-123.85388)"
     inkscape:label="icon"><path
       style="fill:#245B8F;fill-opacity:1;stroke-width:0.372962"
       d="m 165.74369,312.34514 c -3.65904,-0.95861 -6.89131,-3.35348 -9.21494,-6.82759 -1.91226,-2.85908 -2.39705,-4.56971 -2.39705,-8.45836 0,-3.99254 0.0824,-4.2757 4.23012,-14.54553 4.00923,-9.92681 11.74597,-29.60804 14.17254,-36.05302 1.0555,-2.80344 4.63579,-12.0902 7.95619,-20.63725 3.3204,-8.54706 9.47265,-24.4912 13.67168,-35.43143 9.41163,-24.52125 12.15124,-31.39614 14.19222,-35.61455 1.33229,-2.75364 1.87867,-3.59258 3.34546,-5.13672 1.96822,-2.07203 4.0984,-3.56253 6.46687,-4.52493 1.27138,-0.5166 2.25763,-0.69302 4.82679,-0.8634 5.2183,-0.34607 24.57462,-0.55458 24.98508,-0.26914 0.43797,0.30456 1.13131,-1.50021 -15.15412,39.44678 -20.68842,52.01757 -28.96185,72.98265 -36.75181,93.13004 -8.40356,21.73434 -9.39495,24.20764 -10.76316,26.85165 -2.3545,4.55 -6.3824,7.78331 -11.27661,9.05207 -2.07259,0.53729 -6.00015,0.48109 -8.28926,-0.11862 z"
       id="path2"
       inkscape:label="right" /><path
       style="display:inline;fill:#245B8F;fill-opacity:1;stroke-width:0.372962"
       d="m 122.4922,312.58916 c -4.07956,-0.73258 -8.65123,-3.9341 -11.23258,-7.86616 -0.73004,-1.11203 -1.85459,-3.48326 -2.84309,-5.99496 -0.89943,-2.2854 -4.76287,-12.1553 -8.585409,-21.93313 -3.82254,-9.77783 -8.479072,-21.63803 -10.347852,-26.35601 -1.86878,-4.71797 -7.404968,-18.81595 -12.302646,-31.32884 -4.897681,-12.51288 -10.861923,-27.72975 -13.253876,-33.81525 -2.391953,-6.0855 -5.665216,-14.47715 -7.273918,-18.64811 -1.608698,-4.17097 -4.23595,-10.84826 -5.838334,-14.83843 -2.072779,-5.16153 -2.836509,-7.33177 -2.646869,-7.5214 0.347903,-0.34791 20.828887,-0.35917 24.732874,-0.0136 4.649256,0.41154 7.012848,1.52811 10.517546,4.96852 1.450819,1.42421 2.398,2.60213 2.904375,3.6119 1.798693,3.58678 8.418103,20.02869 18.666279,46.36506 3.69839,9.50432 11.16067,28.41351 16.58285,42.02042 14.63433,36.72467 18.74753,47.13765 19.53975,49.46687 2.22981,6.55589 1.05533,12.70214 -3.30426,17.29176 -3.10359,3.26736 -6.22043,4.60845 -11.02178,4.7424 -1.64331,0.0458 -3.57518,-0.0221 -4.29306,-0.15103 z"
       id="path3"
       inkscape:label="left" /><rect
       style="display:inline;fill:#ec634d;fill-opacity:1;stroke-width:0.176873"
       id="rect4"
       width="11.26954"
       height="42.097622"
       x="164.88014"
       y="176.25909"
       ry="5.610496"
       inkscape:label="rect6" /><rect
       style="display:inline;fill:#ec634d;fill-opacity:1;stroke-width:0.258266"
       id="rect6"
       width="11.62156"
       height="87.038605"
       x="142.15868"
       y="153.7886"
       ry="5.610496"
       inkscape:label="rect4" /><rect
       style="display:inline;fill:#ec634d;fill-opacity:1;stroke-width:0.176873"
       id="rect4-8"
       width="11.26954"
       height="42.097622"
       x="119.78924"
       y="176.25909"
       ry="5.610496"
       inkscape:label="rect6" /></g><path
     style="font-size:213.333px;font-family:Quantify;-inkscape-font-specification:Quantify;fill:#ec634d"
     d="m 222.25132,68.479897 q -12.79998,0 -21.75997,8.959986 -8.95998,8.959986 -8.95998,21.759965 0,12.586642 8.95998,21.546632 4.26666,4.47999 9.81332,6.82666 5.75999,2.13333 11.94665,2.13333 6.18666,0 11.73331,-2.13333 5.54666,-2.34667 10.02665,-6.82666 8.95999,-8.95999 8.95999,-21.546632 0,-12.799979 -8.95999,-21.759965 -9.38665,-8.959986 -21.75996,-8.959986 z m 0,-25.599959 q 11.73331,0 21.9733,4.479993 10.23998,4.26666 17.91997,11.946648 7.67999,7.679987 11.94665,17.919971 4.47999,10.239984 4.47999,21.973298 0,11.519982 -4.47999,21.759962 -4.26666,10.23999 -11.94665,17.91997 -7.67999,7.67999 -17.91997,12.15999 -10.23999,4.26666 -21.9733,4.26666 -11.73332,0 -21.9733,-4.26666 -10.23998,-4.48 -17.91997,-12.15999 -7.67999,-7.67998 -12.15998,-17.91997 -4.26666,-10.23998 -4.26666,-21.759962 0,-11.733314 4.26666,-21.973298 4.47999,-10.239984 12.15998,-17.919971 7.67999,-7.679988 17.91997,-11.946648 10.23998,-4.479993 21.9733,-4.479993 z M 383.3179,138.87978 q -7.67999,7.67999 -17.91997,12.15999 -10.23999,4.26666 -21.9733,4.26666 -11.73332,0 -21.9733,-4.26666 -10.23998,-4.48 -17.91997,-12.15999 -7.67999,-7.67998 -12.15998,-17.91997 -4.26666,-10.23998 -4.26666,-21.759962 0,-11.733314 4.26666,-21.973298 4.47999,-10.239984 12.15998,-17.919971 7.67999,-7.679988 17.91997,-11.946648 10.23998,-4.479993 21.9733,-4.479993 11.73331,0 21.9733,4.479993 10.23998,4.26666 17.91997,11.946648 l -18.13331,18.133304 q -8.95998,-8.959986 -21.75996,-8.959986 -12.37332,0 -21.75997,8.959986 -8.95998,8.959986 -8.95998,21.759965 0,12.586642 8.95998,21.546632 4.48,4.47999 10.02665,6.82666 5.54666,2.13333 11.73332,2.13333 13.01331,0 21.75996,-8.95999 z M 498.09114,45.653267 V 152.5331 H 472.49118 V 99.199848 q 0,-12.799979 -8.95998,-21.759965 -8.95999,-8.959986 -21.75997,-8.959986 -6.18666,0 -11.94665,2.346663 -5.54665,2.346663 -9.81331,6.613323 -8.95999,8.959986 -8.95999,21.759965 0,12.586642 8.95999,21.546632 4.26666,4.47999 9.81331,6.82666 5.75999,2.13333 11.94665,2.13333 6.39999,0 11.51998,-2.13333 l 9.17332,22.82663 q -9.81332,4.90666 -22.82663,4.90666 -11.73331,0 -21.75996,-4.26666 -9.81332,-4.48 -17.06664,-12.15999 -7.25332,-7.67998 -11.30665,-17.91997 -4.05333,-10.23998 -4.05333,-21.759962 0,-11.733314 4.05333,-21.973298 4.05333,-10.239984 11.30665,-17.919971 7.25332,-7.679988 17.06664,-11.946648 10.02665,-4.479993 21.75996,-4.479993 10.45332,0 18.55997,3.199995 8.10666,3.199995 14.29331,8.106654 v -8.53332 z M 538.62446,152.5331 H 513.0245 V 3.2000015 h 25.59996 V 152.5331 Z m 120.10659,-42.6666 q 0,10.45331 -3.41333,18.98663 -3.41332,8.31999 -9.81331,14.29331 -6.18666,5.76 -15.14665,8.95999 -8.95998,3.2 -20.0533,3.2 -17.70664,0 -31.57328,-5.54666 -13.86664,-5.75999 -22.82663,-13.01332 l 17.70664,-17.70663 q 7.03999,6.39999 15.78664,9.81331 5.33332,2.13333 10.02665,2.77333 4.69333,0.64 7.67999,0.64 5.54666,0 10.02665,-1.28 4.69332,-1.49333 8.10665,-3.83999 7.25332,-5.33332 7.25332,-14.07998 0,-5.33332 -3.83999,-9.59998 -2.98666,-3.41333 -7.67999,-5.54666 -3.83999,-2.13333 -8.10665,-3.413328 -4.26666,-1.279998 -7.67999,-2.346663 -1.06666,-0.426666 -1.92,-0.426666 -0.85333,-0.213333 -1.49333,-0.639999 -0.42666,0 -1.27999,-0.426666 -4.48,-1.279997 -13.01332,-4.479992 -8.31998,-3.199995 -16.63997,-8.746653 -19.4133,-13.013313 -19.4133,-31.999949 0,-12.586647 4.26666,-21.119966 4.47999,-8.746653 11.51998,-14.079978 7.03999,-5.5466575 15.57331,-7.8933204 Q 591.53116,6.6375733e-6 599.85115,6.6375733e-6 q 15.35997,0 25.81329,3.6266608624267 10.45332,3.6266609 16.63997,7.2533215 3.2,1.919997 5.33333,3.839994 2.34666,1.706664 4.05332,3.199995 l -18.1333,18.346637 q -5.75999,-5.75999 -11.73332,-8.746652 -8.95998,-4.26666 -18.7733,-4.26666 -4.26666,0 -8.53332,1.066665 -4.26666,1.066665 -7.46665,2.773329 -9.38665,5.75999 -9.38665,15.146642 0,5.759991 3.83999,9.813318 2.77333,3.199995 7.67999,5.759991 4.05332,2.13333 8.53332,3.413328 4.47999,1.279997 8.31998,2.346662 l 2.56,0.639999 q 1.06666,0.426666 4.05333,1.279998 2.98666,0.853332 7.03998,2.559996 4.05333,1.706664 8.74666,4.053327 4.90666,2.346663 9.59998,5.546658 20.6933,13.653311 20.6933,32.213284 z m 69.11977,42.6666 h -23.46663 q -7.25332,0 -13.65331,-2.77333 -6.39999,-2.77333 -11.09332,-7.46666 -4.69332,-4.90666 -7.46665,-11.30665 -2.77333,-6.39999 -2.77333,-13.65331 V 24.319968 l 25.59996,-6.39999 V 58.66658 h 14.93331 l 6.39999,25.599959 h -21.3333 v 33.066611 q 0,4.05333 2.77333,6.82666 2.77333,2.77333 6.61332,2.77333 h 17.06664 z m 111.36,-106.879833 V 152.5331 H 813.61086 V 99.199848 q 0,-12.799979 -8.95999,-21.759965 -8.95998,-8.959986 -21.75996,-8.959986 -6.18666,0 -11.94665,2.346663 -5.54666,2.346663 -9.81332,6.613323 -8.95998,8.959986 -8.95998,21.759965 0,12.586642 8.95998,21.546632 4.26666,4.47999 9.81332,6.82666 5.75999,2.13333 11.94665,2.13333 6.39999,0 11.51998,-2.13333 l 9.17332,22.82663 q -9.81332,4.90666 -22.82663,4.90666 -11.73332,0 -21.75997,-4.26666 -9.81332,-4.48 -17.06664,-12.15999 -7.25332,-7.67998 -11.30665,-17.91997 -4.05332,-10.23998 -4.05332,-21.759962 0,-11.733314 4.05332,-21.973298 4.05333,-10.239984 11.30665,-17.919971 7.25332,-7.679988 17.06664,-11.946648 10.02665,-4.479993 21.75997,-4.479993 10.45331,0 18.55997,3.199995 8.10665,3.199995 14.29331,8.106654 v -8.53332 z m 107.94652,93.226513 q -7.67998,7.67999 -17.91997,12.15999 -10.23998,4.26666 -21.97329,4.26666 -11.73332,0 -21.9733,-4.26666 -10.23999,-4.48 -17.91997,-12.15999 -7.67999,-7.67998 -12.15998,-17.91997 -4.26666,-10.23998 -4.26666,-21.759962 0,-11.733314 4.26666,-21.973298 4.47999,-10.239984 12.15998,-17.919971 7.67998,-7.679988 17.91997,-11.946648 10.23998,-4.479993 21.9733,-4.479993 11.73331,0 21.97329,4.479993 10.23999,4.26666 17.91997,11.946648 l -18.1333,18.133304 q -8.95999,-8.959986 -21.75996,-8.959986 -12.37332,0 -21.75997,8.959986 -8.95999,8.959986 -8.95999,21.759965 0,12.586642 8.95999,21.546632 4.47999,4.47999 10.02665,6.82666 5.54666,2.13333 11.73332,2.13333 13.01331,0 21.75996,-8.95999 z M 1051.6907,45.8666 998.3574,99.199848 1051.6907,152.5331 h -36.0533 L 980.2241,117.11982 V 152.5331 H 954.62414 V 3.2000015 H 980.2241 V 81.066544 L 1015.424,45.8666 h 36.2667 z"
     id="text1"
     inkscape:label="text"
     aria-label="ocalStack" /></svg>
